<?xml version="1.0" standalone="no"?>
<!DOCTYPE svg PUBLIC "-//W3C//DTD SVG 20010904//EN"
 "http://www.w3.org/TR/2001/REC-SVG-20010904/DTD/svg10.dtd">
<svg version="1.0" xmlns="http://www.w3.org/2000/svg"
 width="124.000000pt" height="124.000000pt" viewBox="0 0 124.000000 124.000000"
 preserveAspectRatio="xMidYMid meet">
<metadata>
Created by potrace 1.14, written by Peter Selinger 2001-2017
</metadata>
<g transform="translate(0.000000,124.000000) scale(0.100000,-0.100000)"
fill="#000000" stroke="none">
<path d="M155 713 c-32 -59 -80 -150 -107 -200 l-49 -93 58 0 59 0 64 123 c35
67 71 135 80 150 l17 28 41 -86 42 -86 57 3 58 3 2 69 c0 37 6 73 12 79 7 7
55 12 127 13 63 1 116 3 117 5 19 25 46 83 42 88 -4 3 -67 8 -141 9 -121 4
-138 2 -178 -18 -25 -12 -48 -30 -51 -41 -9 -28 -21 -23 -42 19 -20 36 -21 37
-85 40 l-66 3 -57 -108z"/>
<path d="M850 808 c-40 -15 -79 -59 -86 -97 -9 -48 -11 -269 -3 -283 10 -16
71 22 86 53 8 14 13 64 13 121 0 83 3 99 18 106 9 5 68 9 130 8 124 -1 132 -5
132 -62 0 -44 -18 -55 -99 -56 l-71 -1 -30 -48 c-16 -27 -26 -50 -22 -52 4 -2
55 -3 113 -2 119 3 156 16 190 71 28 46 26 140 -4 185 -38 57 -72 68 -216 67
-69 0 -137 -4 -151 -10z"/>
<path d="M280 515 c-12 -15 -40 -73 -40 -82 0 -11 484 -11 488 0 1 4 2 26 2
50 l0 42 -221 0 c-136 0 -224 -4 -229 -10z"/>
</g>
</svg>
